<mxfile host="app.diagrams.net" modified="2023-11-10T18:07:13.563Z" agent="Mozilla/5.0 (Macintosh; Intel Mac OS X 10_15_7) AppleWebKit/537.36 (KHTML, like Gecko) Chrome/116.0.0.0 Safari/537.36" etag="YbuG_aylTSA-pkXjrhkh" version="22.1.0" type="google">
  <diagram id="R2lEEEUBdFMjLlhIrx00" name="Page-1">
    <mxGraphModel grid="1" page="1" gridSize="10" guides="1" tooltips="1" connect="1" arrows="1" fold="1" pageScale="1" pageWidth="850" pageHeight="1100" math="0" shadow="0" extFonts="Permanent Marker^https://fonts.googleapis.com/css?family=Permanent+Marker">
      <root>
        <mxCell id="0" />
        <mxCell id="1" parent="0" />
        <mxCell id="cFWJzVmhtB5wWe0yw5Uk-1" value="KORISNIK" style="rounded=0;whiteSpace=wrap;html=1;" vertex="1" parent="1">
          <mxGeometry x="180" y="-180" width="120" height="60" as="geometry" />
        </mxCell>
        <mxCell id="cFWJzVmhtB5wWe0yw5Uk-2" value="SLUSHATEL" style="rounded=0;whiteSpace=wrap;html=1;" vertex="1" parent="1">
          <mxGeometry x="250" y="-10" width="120" height="60" as="geometry" />
        </mxCell>
        <mxCell id="cFWJzVmhtB5wWe0yw5Uk-3" value="UMETNIK" style="rounded=0;whiteSpace=wrap;html=1;" vertex="1" parent="1">
          <mxGeometry x="60" y="-10" width="120" height="60" as="geometry" />
        </mxCell>
        <mxCell id="cFWJzVmhtB5wWe0yw5Uk-4" value="PEREFERENCA" style="rounded=0;whiteSpace=wrap;html=1;" vertex="1" parent="1">
          <mxGeometry x="550" y="450" width="120" height="60" as="geometry" />
        </mxCell>
        <mxCell id="cFWJzVmhtB5wWe0yw5Uk-5" value="PESNA" style="rounded=0;whiteSpace=wrap;html=1;" vertex="1" parent="1">
          <mxGeometry x="-230" y="200" width="120" height="60" as="geometry" />
        </mxCell>
        <mxCell id="cFWJzVmhtB5wWe0yw5Uk-6" value="ALBUM" style="rounded=0;whiteSpace=wrap;html=1;" vertex="1" parent="1">
          <mxGeometry x="280" y="270" width="120" height="60" as="geometry" />
        </mxCell>
        <mxCell id="cFWJzVmhtB5wWe0yw5Uk-7" value="EPIZODA" style="rounded=0;whiteSpace=wrap;html=1;" vertex="1" parent="1">
          <mxGeometry x="-410" y="200" width="120" height="60" as="geometry" />
        </mxCell>
        <mxCell id="cFWJzVmhtB5wWe0yw5Uk-9" value="OCENA" style="rounded=0;whiteSpace=wrap;html=1;" vertex="1" parent="1">
          <mxGeometry x="10" y="290" width="120" height="60" as="geometry" />
        </mxCell>
        <mxCell id="cFWJzVmhtB5wWe0yw5Uk-10" value="PLEJLISTA" style="rounded=0;whiteSpace=wrap;html=1;" vertex="1" parent="1">
          <mxGeometry x="170" y="370" width="120" height="60" as="geometry" />
        </mxCell>
        <mxCell id="cFWJzVmhtB5wWe0yw5Uk-11" value="ZHANR" style="rounded=0;whiteSpace=wrap;html=1;" vertex="1" parent="1">
          <mxGeometry x="-5" y="470" width="120" height="60" as="geometry" />
        </mxCell>
        <mxCell id="cFWJzVmhtB5wWe0yw5Uk-12" value="PODKAST" style="rounded=0;whiteSpace=wrap;html=1;" vertex="1" parent="1">
          <mxGeometry x="170" y="470" width="120" height="60" as="geometry" />
        </mxCell>
        <mxCell id="cFWJzVmhtB5wWe0yw5Uk-13" value="DELO" style="rounded=0;whiteSpace=wrap;html=1;" vertex="1" parent="1">
          <mxGeometry x="-320" y="50" width="120" height="60" as="geometry" />
        </mxCell>
        <mxCell id="cFWJzVmhtB5wWe0yw5Uk-14" value="KATEGORIJA" style="rounded=0;whiteSpace=wrap;html=1;" vertex="1" parent="1">
          <mxGeometry x="360" y="460" width="120" height="60" as="geometry" />
        </mxCell>
        <mxCell id="cFWJzVmhtB5wWe0yw5Uk-15" value="NASTAN" style="rounded=0;whiteSpace=wrap;html=1;" vertex="1" parent="1">
          <mxGeometry x="620" y="-100" width="120" height="60" as="geometry" />
        </mxCell>
        <mxCell id="cFWJzVmhtB5wWe0yw5Uk-17" value="LIVESTREAM" style="rounded=0;whiteSpace=wrap;html=1;" vertex="1" parent="1">
          <mxGeometry x="705" y="60" width="120" height="60" as="geometry" />
        </mxCell>
        <mxCell id="cFWJzVmhtB5wWe0yw5Uk-18" value="KONCERT" style="rounded=0;whiteSpace=wrap;html=1;" vertex="1" parent="1">
          <mxGeometry x="540" y="60" width="120" height="60" as="geometry" />
        </mxCell>
        <mxCell id="cFWJzVmhtB5wWe0yw5Uk-19" value="REAKCII" style="rounded=0;whiteSpace=wrap;html=1;" vertex="1" parent="1">
          <mxGeometry x="360" y="560" width="120" height="60" as="geometry" />
        </mxCell>
        <mxCell id="cFWJzVmhtB5wWe0yw5Uk-44" style="edgeStyle=orthogonalEdgeStyle;rounded=0;orthogonalLoop=1;jettySize=auto;html=1;exitX=1;exitY=1;exitDx=0;exitDy=0;entryX=0.25;entryY=0;entryDx=0;entryDy=0;" edge="1" parent="1" source="cFWJzVmhtB5wWe0yw5Uk-23" target="cFWJzVmhtB5wWe0yw5Uk-13">
          <mxGeometry relative="1" as="geometry">
            <Array as="points">
              <mxPoint x="-340" y="10" />
              <mxPoint x="-290" y="10" />
            </Array>
          </mxGeometry>
        </mxCell>
        <mxCell id="cFWJzVmhtB5wWe0yw5Uk-23" value="d_datumNaIzdavanje" style="ellipse;whiteSpace=wrap;html=1;align=center;" vertex="1" parent="1">
          <mxGeometry x="-400" y="-50" width="125" height="40" as="geometry" />
        </mxCell>
        <mxCell id="cFWJzVmhtB5wWe0yw5Uk-29" value="izdava" style="shape=rhombus;perimeter=rhombusPerimeter;whiteSpace=wrap;html=1;align=center;" vertex="1" parent="1">
          <mxGeometry x="-130" y="-20" width="120" height="60" as="geometry" />
        </mxCell>
        <mxCell id="cFWJzVmhtB5wWe0yw5Uk-30" value="" style="endArrow=none;html=1;rounded=0;entryX=0;entryY=0.5;entryDx=0;entryDy=0;exitX=1;exitY=0.5;exitDx=0;exitDy=0;" edge="1" parent="1" source="cFWJzVmhtB5wWe0yw5Uk-29" target="cFWJzVmhtB5wWe0yw5Uk-3">
          <mxGeometry relative="1" as="geometry">
            <mxPoint y="120" as="sourcePoint" />
            <mxPoint x="160" y="120" as="targetPoint" />
          </mxGeometry>
        </mxCell>
        <mxCell id="cFWJzVmhtB5wWe0yw5Uk-31" value="N" style="resizable=0;html=1;whiteSpace=wrap;align=right;verticalAlign=bottom;" connectable="0" vertex="1" parent="cFWJzVmhtB5wWe0yw5Uk-30">
          <mxGeometry x="1" relative="1" as="geometry">
            <mxPoint x="-10" as="offset" />
          </mxGeometry>
        </mxCell>
        <mxCell id="cFWJzVmhtB5wWe0yw5Uk-34" value="" style="shape=link;html=1;rounded=0;exitX=0;exitY=0.5;exitDx=0;exitDy=0;entryX=1;entryY=0.5;entryDx=0;entryDy=0;" edge="1" parent="1" source="cFWJzVmhtB5wWe0yw5Uk-29" target="cFWJzVmhtB5wWe0yw5Uk-13">
          <mxGeometry relative="1" as="geometry">
            <mxPoint x="-150" y="30" as="sourcePoint" />
            <mxPoint x="10" y="30" as="targetPoint" />
          </mxGeometry>
        </mxCell>
        <mxCell id="cFWJzVmhtB5wWe0yw5Uk-35" value="M" style="resizable=0;html=1;whiteSpace=wrap;align=right;verticalAlign=bottom;" connectable="0" vertex="1" parent="cFWJzVmhtB5wWe0yw5Uk-34">
          <mxGeometry x="1" relative="1" as="geometry">
            <mxPoint x="30" y="10" as="offset" />
          </mxGeometry>
        </mxCell>
        <mxCell id="cFWJzVmhtB5wWe0yw5Uk-39" value="" style="edgeStyle=orthogonalEdgeStyle;rounded=0;orthogonalLoop=1;jettySize=auto;html=1;" edge="1" parent="1" source="cFWJzVmhtB5wWe0yw5Uk-36" target="cFWJzVmhtB5wWe0yw5Uk-1">
          <mxGeometry relative="1" as="geometry" />
        </mxCell>
        <mxCell id="cFWJzVmhtB5wWe0yw5Uk-36" value="O" style="ellipse;whiteSpace=wrap;html=1;aspect=fixed;" vertex="1" parent="1">
          <mxGeometry x="220" y="-70" width="20" height="20" as="geometry" />
        </mxCell>
        <mxCell id="cFWJzVmhtB5wWe0yw5Uk-37" value="" style="endArrow=none;html=1;rounded=0;entryX=0.5;entryY=1;entryDx=0;entryDy=0;exitX=1;exitY=0;exitDx=0;exitDy=0;" edge="1" parent="1" source="cFWJzVmhtB5wWe0yw5Uk-3" target="cFWJzVmhtB5wWe0yw5Uk-36">
          <mxGeometry width="50" height="50" relative="1" as="geometry">
            <mxPoint x="230" y="120" as="sourcePoint" />
            <mxPoint x="280" y="70" as="targetPoint" />
          </mxGeometry>
        </mxCell>
        <mxCell id="cFWJzVmhtB5wWe0yw5Uk-38" value="" style="endArrow=none;html=1;rounded=0;entryX=0.5;entryY=1;entryDx=0;entryDy=0;exitX=0.5;exitY=0;exitDx=0;exitDy=0;" edge="1" parent="1" source="cFWJzVmhtB5wWe0yw5Uk-2" target="cFWJzVmhtB5wWe0yw5Uk-36">
          <mxGeometry width="50" height="50" relative="1" as="geometry">
            <mxPoint x="180" y="80" as="sourcePoint" />
            <mxPoint x="290" y="50" as="targetPoint" />
          </mxGeometry>
        </mxCell>
        <mxCell id="cFWJzVmhtB5wWe0yw5Uk-41" value="" style="edgeStyle=orthogonalEdgeStyle;rounded=0;orthogonalLoop=1;jettySize=auto;html=1;" edge="1" parent="1" source="cFWJzVmhtB5wWe0yw5Uk-40" target="cFWJzVmhtB5wWe0yw5Uk-13">
          <mxGeometry relative="1" as="geometry" />
        </mxCell>
        <mxCell id="cFWJzVmhtB5wWe0yw5Uk-42" style="edgeStyle=orthogonalEdgeStyle;rounded=0;orthogonalLoop=1;jettySize=auto;html=1;exitX=0;exitY=1;exitDx=0;exitDy=0;" edge="1" parent="1" source="cFWJzVmhtB5wWe0yw5Uk-40" target="cFWJzVmhtB5wWe0yw5Uk-7">
          <mxGeometry relative="1" as="geometry" />
        </mxCell>
        <mxCell id="cFWJzVmhtB5wWe0yw5Uk-43" style="edgeStyle=orthogonalEdgeStyle;rounded=0;orthogonalLoop=1;jettySize=auto;html=1;exitX=1;exitY=1;exitDx=0;exitDy=0;entryX=0.5;entryY=0;entryDx=0;entryDy=0;" edge="1" parent="1" source="cFWJzVmhtB5wWe0yw5Uk-40" target="cFWJzVmhtB5wWe0yw5Uk-5">
          <mxGeometry relative="1" as="geometry" />
        </mxCell>
        <mxCell id="cFWJzVmhtB5wWe0yw5Uk-40" value="D" style="ellipse;whiteSpace=wrap;html=1;aspect=fixed;" vertex="1" parent="1">
          <mxGeometry x="-270" y="140" width="20" height="20" as="geometry" />
        </mxCell>
        <mxCell id="cFWJzVmhtB5wWe0yw5Uk-46" style="edgeStyle=orthogonalEdgeStyle;rounded=0;orthogonalLoop=1;jettySize=auto;html=1;exitX=0.5;exitY=1;exitDx=0;exitDy=0;entryX=0.5;entryY=0;entryDx=0;entryDy=0;" edge="1" parent="1" source="cFWJzVmhtB5wWe0yw5Uk-45" target="cFWJzVmhtB5wWe0yw5Uk-13">
          <mxGeometry relative="1" as="geometry" />
        </mxCell>
        <mxCell id="cFWJzVmhtB5wWe0yw5Uk-45" value="d_id" style="ellipse;whiteSpace=wrap;html=1;align=center;" vertex="1" parent="1">
          <mxGeometry x="-265" y="-50" width="125" height="40" as="geometry" />
        </mxCell>
        <mxCell id="cFWJzVmhtB5wWe0yw5Uk-53" style="edgeStyle=orthogonalEdgeStyle;rounded=0;orthogonalLoop=1;jettySize=auto;html=1;exitX=1;exitY=1;exitDx=0;exitDy=0;entryX=0.458;entryY=0;entryDx=0;entryDy=0;entryPerimeter=0;" edge="1" parent="1" source="cFWJzVmhtB5wWe0yw5Uk-55" target="cFWJzVmhtB5wWe0yw5Uk-17">
          <mxGeometry relative="1" as="geometry">
            <mxPoint x="770" y="60" as="targetPoint" />
          </mxGeometry>
        </mxCell>
        <mxCell id="cFWJzVmhtB5wWe0yw5Uk-54" style="edgeStyle=orthogonalEdgeStyle;rounded=0;orthogonalLoop=1;jettySize=auto;html=1;exitX=0;exitY=1;exitDx=0;exitDy=0;entryX=0.5;entryY=0;entryDx=0;entryDy=0;" edge="1" parent="1" source="cFWJzVmhtB5wWe0yw5Uk-55" target="cFWJzVmhtB5wWe0yw5Uk-18">
          <mxGeometry relative="1" as="geometry">
            <mxPoint x="590" y="60" as="targetPoint" />
          </mxGeometry>
        </mxCell>
        <mxCell id="cFWJzVmhtB5wWe0yw5Uk-56" value="" style="edgeStyle=orthogonalEdgeStyle;rounded=0;orthogonalLoop=1;jettySize=auto;html=1;" edge="1" parent="1" source="cFWJzVmhtB5wWe0yw5Uk-55" target="cFWJzVmhtB5wWe0yw5Uk-15">
          <mxGeometry relative="1" as="geometry" />
        </mxCell>
        <mxCell id="cFWJzVmhtB5wWe0yw5Uk-55" value="D" style="ellipse;whiteSpace=wrap;html=1;aspect=fixed;" vertex="1" parent="1">
          <mxGeometry x="670" width="20" height="20" as="geometry" />
        </mxCell>
        <mxCell id="cFWJzVmhtB5wWe0yw5Uk-58" value="komentira" style="shape=rhombus;perimeter=rhombusPerimeter;whiteSpace=wrap;html=1;align=center;" vertex="1" parent="1">
          <mxGeometry x="20" y="120" width="120" height="60" as="geometry" />
        </mxCell>
        <mxCell id="cFWJzVmhtB5wWe0yw5Uk-61" value="" style="endArrow=none;html=1;rounded=0;entryX=1;entryY=0.5;entryDx=0;entryDy=0;exitX=1;exitY=0.5;exitDx=0;exitDy=0;" edge="1" parent="1" source="cFWJzVmhtB5wWe0yw5Uk-58" target="cFWJzVmhtB5wWe0yw5Uk-1">
          <mxGeometry relative="1" as="geometry">
            <mxPoint x="170" y="180" as="sourcePoint" />
            <mxPoint x="190" y="130" as="targetPoint" />
            <Array as="points">
              <mxPoint x="430" y="80" />
              <mxPoint x="460" y="-80" />
            </Array>
          </mxGeometry>
        </mxCell>
        <mxCell id="cFWJzVmhtB5wWe0yw5Uk-62" value="N" style="resizable=0;html=1;whiteSpace=wrap;align=right;verticalAlign=bottom;" connectable="0" vertex="1" parent="cFWJzVmhtB5wWe0yw5Uk-61">
          <mxGeometry x="1" relative="1" as="geometry">
            <mxPoint x="-140" y="280" as="offset" />
          </mxGeometry>
        </mxCell>
        <mxCell id="cFWJzVmhtB5wWe0yw5Uk-63" value="" style="endArrow=none;html=1;rounded=0;entryX=0;entryY=0.5;entryDx=0;entryDy=0;exitX=1;exitY=0.75;exitDx=0;exitDy=0;" edge="1" parent="1" source="cFWJzVmhtB5wWe0yw5Uk-13" target="cFWJzVmhtB5wWe0yw5Uk-58">
          <mxGeometry relative="1" as="geometry">
            <mxPoint x="170" y="170" as="sourcePoint" />
            <mxPoint x="130" y="240" as="targetPoint" />
          </mxGeometry>
        </mxCell>
        <mxCell id="cFWJzVmhtB5wWe0yw5Uk-64" value="M" style="resizable=0;html=1;whiteSpace=wrap;align=right;verticalAlign=bottom;" connectable="0" vertex="1" parent="cFWJzVmhtB5wWe0yw5Uk-63">
          <mxGeometry x="1" relative="1" as="geometry">
            <mxPoint y="-10" as="offset" />
          </mxGeometry>
        </mxCell>
        <mxCell id="cFWJzVmhtB5wWe0yw5Uk-71" value="k_sodrzhina" style="ellipse;whiteSpace=wrap;html=1;align=center;" vertex="1" parent="1">
          <mxGeometry x="-30" y="210" width="125" height="40" as="geometry" />
        </mxCell>
        <mxCell id="cFWJzVmhtB5wWe0yw5Uk-74" value="" style="endArrow=none;html=1;rounded=0;entryX=0.5;entryY=1;entryDx=0;entryDy=0;exitX=0.5;exitY=0;exitDx=0;exitDy=0;" edge="1" parent="1" source="cFWJzVmhtB5wWe0yw5Uk-71" target="cFWJzVmhtB5wWe0yw5Uk-58">
          <mxGeometry width="50" height="50" relative="1" as="geometry">
            <mxPoint x="180" y="230" as="sourcePoint" />
            <mxPoint x="230" y="180" as="targetPoint" />
          </mxGeometry>
        </mxCell>
        <mxCell id="cFWJzVmhtB5wWe0yw5Uk-75" value="k_DatumIVreme" style="ellipse;whiteSpace=wrap;html=1;align=center;" vertex="1" parent="1">
          <mxGeometry x="110" y="210" width="125" height="40" as="geometry" />
        </mxCell>
        <mxCell id="cFWJzVmhtB5wWe0yw5Uk-76" value="" style="endArrow=none;html=1;rounded=0;exitX=0.5;exitY=0;exitDx=0;exitDy=0;entryX=0.5;entryY=1;entryDx=0;entryDy=0;" edge="1" parent="1" source="cFWJzVmhtB5wWe0yw5Uk-75" target="cFWJzVmhtB5wWe0yw5Uk-58">
          <mxGeometry width="50" height="50" relative="1" as="geometry">
            <mxPoint x="219" y="190" as="sourcePoint" />
            <mxPoint x="216" y="150" as="targetPoint" />
          </mxGeometry>
        </mxCell>
      </root>
    </mxGraphModel>
  </diagram>
</mxfile>
